<svg width="520" height="121" viewBox="0 0 520 121" fill="none" xmlns="http://www.w3.org/2000/svg">
<g clip-path="url(#clip0_89_228)">
<path d="M73.9171 1C25.281 1 -12.538 113.191 3.89253 118.975C20.3231 124.758 117.964 67.8221 175 42.2665C124.479 57.3619 24.1337 104.453 23.3962 87.5939C22.7406 72.5395 44.2519 16.5467 66.4189 18.7618C69.9836 19.131 72.6469 20.8538 74.3678 22.2485C99.6898 42.0203 100.919 108.637 101.042 120.041C113.99 115.693 126.937 111.304 139.885 106.956C139.885 106.956 122.512 1.04102 73.8761 1.04102L73.9171 1Z" fill="url(#paint0_linear_89_228)"/>
</g>
<path d="M249.812 67.3125L244.75 58.3125H210.906L205.812 67.3125H198.375L222.906 24.0312H232.656L257.125 67.3125H249.812ZM241.688 52.6875L228.75 29.6562H227.125L214 52.6875H241.688ZM257.375 53.3438H263.844C263.844 54.0312 263.854 54.4479 263.875 54.5938C263.917 56.9688 264.073 58.5417 264.344 59.3125C264.635 60.0625 265.24 60.6354 266.156 61.0312C267.656 61.6771 272.75 62 281.438 62C287.75 62 292.271 61.6875 295 61.0625C297.5 60.5208 298.75 58.5104 298.75 55.0312C298.75 53.2188 298.542 51.8854 298.125 51.0312C297.729 50.1562 297.073 49.5521 296.156 49.2188C295.115 48.8646 293.656 48.6562 291.781 48.5938C289.906 48.5312 283.708 48.5 273.188 48.5C269.583 48.5 266.677 48.1667 264.469 47.5C262.26 46.8125 260.562 45.7083 259.375 44.1875C257.979 42.4375 257.281 39.8021 257.281 36.2812C257.281 32.3646 258.396 29.5104 260.625 27.7188C261.708 26.8229 262.906 26.1458 264.219 25.6875C265.552 25.2292 267.385 24.8646 269.719 24.5938C273.51 24.1354 278.01 23.9062 283.219 23.9062C288.073 23.9062 291.844 24.1562 294.531 24.6562C297.219 25.1562 299.323 26.0312 300.844 27.2812C302.115 28.3021 302.979 29.4896 303.438 30.8438C303.896 32.1771 304.146 34.3229 304.188 37.2812H297.562C297.562 36.7396 297.562 36.4167 297.562 36.3125C297.562 34.2708 297.344 32.9062 296.906 32.2188C296.302 31.2188 294.927 30.4896 292.781 30.0312C290.635 29.5729 287.365 29.3438 282.969 29.3438C277.469 29.3438 273.375 29.5521 270.688 29.9688C268.021 30.3646 266.229 31 265.312 31.875C264.458 32.75 264.031 34.2188 264.031 36.2812C264.031 38.1771 264.24 39.5 264.656 40.25C265.094 41 265.917 41.5625 267.125 41.9375C269 42.5417 272.667 42.8646 278.125 42.9062C280 42.9271 284.635 42.9479 292.031 42.9688C295.156 42.9896 297.573 43.3021 299.281 43.9062C301.01 44.4896 302.417 45.5 303.5 46.9375C304.833 48.7292 305.5 51.2708 305.5 54.5625C305.5 57.7083 304.958 60.1875 303.875 62C302.542 64.1875 300.104 65.6458 296.562 66.375C293.021 67.1042 286.76 67.4688 277.781 67.4688C273.031 67.4688 269.51 67.3229 267.219 67.0312C264.927 66.7396 263.094 66.2083 261.719 65.4375C260.052 64.4792 258.906 63.2917 258.281 61.875C257.656 60.4375 257.344 58.3333 257.344 55.5625C257.344 55.4375 257.354 54.6979 257.375 53.3438ZM307.438 24.0312H356.844V29.6562H335.5V67.3125H328.875V29.6562H307.438V24.0312ZM360.062 67.3125V24.0312H387.125C394.354 24.1146 398.99 24.2917 401.031 24.5625C404.719 25.0417 407.271 26.6979 408.688 29.5312C409.604 31.3854 410.062 33.9479 410.062 37.2188C410.062 39.6979 409.917 41.5938 409.625 42.9062C409.354 44.1979 408.865 45.25 408.156 46.0625C406.99 47.3542 405.688 48.1562 404.25 48.4688C405.146 48.6146 406.177 49.2812 407.344 50.4688C408.198 51.3854 408.74 52.4688 408.969 53.7188C409.198 54.9479 409.312 57.3542 409.312 60.9375V67.3125H402.688V62.9062C402.688 59.4271 402.615 57.0312 402.469 55.7188C402.073 53.1562 400.667 51.6667 398.25 51.25C397.229 51.1042 396.312 51.0208 395.5 51C394.708 50.9583 391.917 50.9271 387.125 50.9062H366.688V67.3125H360.062ZM366.688 45.2812H387.125C392.646 45.2812 396.156 45.2083 397.656 45.0625C399.177 44.9167 400.385 44.5521 401.281 43.9688C402.635 43.0729 403.312 40.7917 403.312 37.125C403.312 33.9792 402.677 31.9583 401.406 31.0625C400.615 30.4792 399.312 30.1042 397.5 29.9375C395.708 29.75 392.25 29.6562 387.125 29.6562H366.688V45.2812ZM460.75 67.3125L455.688 58.3125H421.844L416.75 67.3125H409.312L433.844 24.0312H443.594L468.062 67.3125H460.75ZM452.625 52.6875L439.688 29.6562H438.062L424.938 52.6875H452.625ZM470.625 24.0312H477.25V61.6875H510.938V67.3125H470.625V24.0312Z" fill="white"/>
<path d="M212.44 104.96H203.116L201.24 110H199.868L207.092 90.792H208.492L215.688 110H214.316L212.44 104.96ZM212.048 103.896L207.792 92.444L203.508 103.896H212.048ZM231.703 94.796V110H230.443V106.696C230.013 107.853 229.295 108.74 228.287 109.356C227.297 109.953 226.159 110.252 224.871 110.252C223.06 110.252 221.576 109.701 220.419 108.6C219.28 107.48 218.711 105.828 218.711 103.644V94.796H219.943V103.56C219.943 105.371 220.4 106.761 221.315 107.732C222.229 108.684 223.471 109.16 225.039 109.16C226.681 109.16 227.988 108.637 228.959 107.592C229.948 106.547 230.443 104.997 230.443 102.944V94.796H231.703ZM238.172 95.888V105.94C238.172 107.06 238.377 107.835 238.788 108.264C239.199 108.675 239.927 108.88 240.972 108.88H242.68V110H240.776C239.451 110 238.471 109.692 237.836 109.076C237.22 108.441 236.912 107.396 236.912 105.94V95.888H234.616V94.796H236.912V90.932H238.172V94.796H242.68V95.888H238.172ZM252.695 110.224C251.276 110.224 249.998 109.907 248.859 109.272C247.72 108.637 246.824 107.732 246.171 106.556C245.536 105.361 245.219 103.971 245.219 102.384C245.219 100.816 245.546 99.444 246.199 98.268C246.852 97.0733 247.748 96.168 248.887 95.552C250.044 94.9173 251.332 94.6 252.751 94.6C254.17 94.6 255.448 94.9173 256.587 95.552C257.726 96.168 258.612 97.064 259.247 98.24C259.9 99.416 260.227 100.797 260.227 102.384C260.227 103.971 259.9 105.361 259.247 106.556C258.594 107.732 257.688 108.637 256.531 109.272C255.392 109.907 254.114 110.224 252.695 110.224ZM252.695 109.104C253.796 109.104 254.823 108.861 255.775 108.376C256.746 107.872 257.52 107.116 258.099 106.108C258.678 105.1 258.967 103.859 258.967 102.384C258.967 100.928 258.678 99.696 258.099 98.688C257.52 97.68 256.755 96.9333 255.803 96.448C254.851 95.944 253.824 95.692 252.723 95.692C251.622 95.692 250.595 95.944 249.643 96.448C248.71 96.9333 247.954 97.68 247.375 98.688C246.796 99.696 246.507 100.928 246.507 102.384C246.507 103.859 246.787 105.1 247.347 106.108C247.926 107.116 248.682 107.872 249.615 108.376C250.567 108.861 251.594 109.104 252.695 109.104ZM282.026 94.488C283.762 94.488 285.181 95.048 286.282 96.168C287.383 97.2693 287.934 98.912 287.934 101.096V110H286.702V101.18C286.702 99.3693 286.263 97.988 285.386 97.036C284.527 96.0653 283.342 95.58 281.83 95.58C280.262 95.58 279.002 96.1213 278.05 97.204C277.098 98.2867 276.622 99.8547 276.622 101.908V110H275.39V101.18C275.39 99.3693 274.951 97.988 274.074 97.036C273.215 96.0653 272.03 95.58 270.518 95.58C268.95 95.58 267.69 96.1213 266.738 97.204C265.786 98.2867 265.31 99.8547 265.31 101.908V110H264.05V94.796H265.31V98.1C265.739 96.9053 266.43 96.0093 267.382 95.412C268.353 94.796 269.463 94.488 270.714 94.488C272.095 94.488 273.281 94.852 274.27 95.58C275.278 96.2893 275.969 97.344 276.342 98.744C276.697 97.344 277.387 96.2893 278.414 95.58C279.441 94.852 280.645 94.488 282.026 94.488ZM291.621 102.384C291.621 100.816 291.929 99.444 292.545 98.268C293.18 97.092 294.048 96.1867 295.149 95.552C296.269 94.9173 297.539 94.6 298.957 94.6C300.563 94.6 301.925 94.992 303.045 95.776C304.165 96.56 304.949 97.5587 305.397 98.772V94.796H306.657V110H305.397V105.996C304.949 107.228 304.156 108.245 303.017 109.048C301.897 109.832 300.544 110.224 298.957 110.224C297.539 110.224 296.269 109.907 295.149 109.272C294.048 108.619 293.18 107.704 292.545 106.528C291.929 105.333 291.621 103.952 291.621 102.384ZM305.397 102.384C305.397 101.059 305.117 99.892 304.557 98.884C304.016 97.8573 303.269 97.0733 302.317 96.532C301.365 95.972 300.301 95.692 299.125 95.692C297.893 95.692 296.811 95.9627 295.877 96.504C294.944 97.0267 294.216 97.792 293.693 98.8C293.171 99.808 292.909 101.003 292.909 102.384C292.909 103.765 293.171 104.96 293.693 105.968C294.216 106.976 294.944 107.751 295.877 108.292C296.829 108.833 297.912 109.104 299.125 109.104C300.301 109.104 301.365 108.833 302.317 108.292C303.288 107.732 304.044 106.948 304.585 105.94C305.127 104.913 305.397 103.728 305.397 102.384ZM313.121 95.888V105.94C313.121 107.06 313.327 107.835 313.737 108.264C314.148 108.675 314.876 108.88 315.921 108.88H317.629V110H315.725C314.4 110 313.42 109.692 312.785 109.076C312.169 108.441 311.861 107.396 311.861 105.94V95.888H309.565V94.796H311.861V90.932H313.121V94.796H317.629V95.888H313.121ZM334.644 101.376C334.644 102.048 334.626 102.552 334.588 102.888H321.456C321.494 104.251 321.792 105.399 322.352 106.332C322.912 107.265 323.65 107.965 324.564 108.432C325.479 108.899 326.478 109.132 327.56 109.132C329.054 109.132 330.304 108.768 331.312 108.04C332.32 107.293 332.955 106.285 333.216 105.016H334.532C334.234 106.565 333.468 107.825 332.236 108.796C331.004 109.748 329.446 110.224 327.56 110.224C326.142 110.224 324.872 109.907 323.752 109.272C322.632 108.637 321.755 107.732 321.12 106.556C320.486 105.361 320.168 103.971 320.168 102.384C320.168 100.797 320.476 99.416 321.092 98.24C321.727 97.064 322.604 96.168 323.724 95.552C324.844 94.9173 326.123 94.6 327.56 94.6C329.016 94.6 330.276 94.9173 331.34 95.552C332.423 96.168 333.244 96.9987 333.804 98.044C334.364 99.0707 334.644 100.181 334.644 101.376ZM333.384 101.852C333.44 100.508 333.198 99.3693 332.656 98.436C332.134 97.5027 331.415 96.812 330.5 96.364C329.586 95.8973 328.596 95.664 327.532 95.664C326.468 95.664 325.479 95.8973 324.564 96.364C323.668 96.812 322.931 97.5027 322.352 98.436C321.792 99.3693 321.494 100.508 321.456 101.852H333.384ZM337.668 102.384C337.668 100.816 337.976 99.444 338.592 98.268C339.227 97.092 340.095 96.1867 341.196 95.552C342.316 94.9173 343.586 94.6 345.004 94.6C346.554 94.6 347.898 94.992 349.036 95.776C350.175 96.5413 350.978 97.54 351.444 98.772V89.28H352.704V110H351.444V105.968C350.996 107.219 350.212 108.245 349.092 109.048C347.972 109.832 346.61 110.224 345.004 110.224C343.586 110.224 342.316 109.907 341.196 109.272C340.095 108.619 339.227 107.704 338.592 106.528C337.976 105.333 337.668 103.952 337.668 102.384ZM351.444 102.384C351.444 101.059 351.164 99.892 350.604 98.884C350.063 97.8573 349.316 97.0733 348.364 96.532C347.412 95.972 346.348 95.692 345.172 95.692C343.94 95.692 342.858 95.9627 341.924 96.504C340.991 97.0267 340.263 97.792 339.74 98.8C339.218 99.808 338.956 101.003 338.956 102.384C338.956 103.765 339.218 104.96 339.74 105.968C340.263 106.976 340.991 107.751 341.924 108.292C342.876 108.833 343.959 109.104 345.172 109.104C346.348 109.104 347.412 108.833 348.364 108.292C349.335 107.732 350.091 106.948 350.632 105.94C351.174 104.913 351.444 103.728 351.444 102.384ZM383.534 90.764V110H382.274V93.396L374.882 110H373.874L366.454 93.396V110H365.194V90.764H366.538L374.378 108.348L382.218 90.764H383.534ZM389.423 108.936H396.731V110H388.163V90.344H389.423V108.936ZM419.395 95.888C419.395 97.624 418.854 98.9773 417.771 99.948C416.689 100.9 415.083 101.376 412.955 101.376H408.755V110H407.495V90.344H412.955C415.121 90.344 416.735 90.848 417.799 91.856C418.863 92.8453 419.395 94.1893 419.395 95.888ZM412.955 100.256C416.409 100.256 418.135 98.8 418.135 95.888C418.135 94.4507 417.725 93.3587 416.903 92.612C416.082 91.8467 414.766 91.464 412.955 91.464H408.755V100.256H412.955ZM424.04 89.28V110H422.78V89.28H424.04ZM427.875 102.384C427.875 100.816 428.183 99.444 428.799 98.268C429.434 97.092 430.302 96.1867 431.403 95.552C432.523 94.9173 433.793 94.6 435.211 94.6C436.817 94.6 438.179 94.992 439.299 95.776C440.419 96.56 441.203 97.5587 441.651 98.772V94.796H442.911V110H441.651V105.996C441.203 107.228 440.41 108.245 439.271 109.048C438.151 109.832 436.798 110.224 435.211 110.224C433.793 110.224 432.523 109.907 431.403 109.272C430.302 108.619 429.434 107.704 428.799 106.528C428.183 105.333 427.875 103.952 427.875 102.384ZM441.651 102.384C441.651 101.059 441.371 99.892 440.811 98.884C440.27 97.8573 439.523 97.0733 438.571 96.532C437.619 95.972 436.555 95.692 435.379 95.692C434.147 95.692 433.065 95.9627 432.131 96.504C431.198 97.0267 430.47 97.792 429.947 98.8C429.425 99.808 429.163 101.003 429.163 102.384C429.163 103.765 429.425 104.96 429.947 105.968C430.47 106.976 431.198 107.751 432.131 108.292C433.083 108.833 434.166 109.104 435.379 109.104C436.555 109.104 437.619 108.833 438.571 108.292C439.542 107.732 440.298 106.948 440.839 105.94C441.381 104.913 441.651 103.728 441.651 102.384ZM449.375 95.888V105.94C449.375 107.06 449.58 107.835 449.991 108.264C450.402 108.675 451.13 108.88 452.175 108.88H453.883V110H451.979C450.654 110 449.674 109.692 449.039 109.076C448.423 108.441 448.115 107.396 448.115 105.94V95.888H445.819V94.796H448.115V90.932H449.375V94.796H453.883V95.888H449.375ZM463.002 95.916H459.054V110H457.794V95.916H455.498V94.796H457.794V93.732C457.794 92.1453 458.195 90.9693 458.998 90.204C459.801 89.42 461.117 89.028 462.946 89.028V90.148C461.49 90.148 460.473 90.428 459.894 90.988C459.334 91.548 459.054 92.4627 459.054 93.732V94.796H463.002V95.916ZM472.922 110.224C471.503 110.224 470.224 109.907 469.086 109.272C467.947 108.637 467.051 107.732 466.398 106.556C465.763 105.361 465.446 103.971 465.446 102.384C465.446 100.816 465.772 99.444 466.426 98.268C467.079 97.0733 467.975 96.168 469.114 95.552C470.271 94.9173 471.559 94.6 472.978 94.6C474.396 94.6 475.675 94.9173 476.814 95.552C477.952 96.168 478.839 97.064 479.474 98.24C480.127 99.416 480.454 100.797 480.454 102.384C480.454 103.971 480.127 105.361 479.474 106.556C478.82 107.732 477.915 108.637 476.758 109.272C475.619 109.907 474.34 110.224 472.922 110.224ZM472.922 109.104C474.023 109.104 475.05 108.861 476.002 108.376C476.972 107.872 477.747 107.116 478.326 106.108C478.904 105.1 479.194 103.859 479.194 102.384C479.194 100.928 478.904 99.696 478.326 98.688C477.747 97.68 476.982 96.9333 476.03 96.448C475.078 95.944 474.051 95.692 472.95 95.692C471.848 95.692 470.822 95.944 469.87 96.448C468.936 96.9333 468.18 97.68 467.602 98.688C467.023 99.696 466.734 100.928 466.734 102.384C466.734 103.859 467.014 105.1 467.574 106.108C468.152 107.116 468.908 107.872 469.842 108.376C470.794 108.861 471.82 109.104 472.922 109.104ZM485.536 97.932C485.91 96.812 486.572 95.9627 487.524 95.384C488.476 94.7867 489.69 94.488 491.164 94.488V95.804H490.744C489.251 95.804 488.01 96.2333 487.02 97.092C486.031 97.932 485.536 99.3133 485.536 101.236V110H484.276V94.796H485.536V97.932ZM512.042 94.488C513.778 94.488 515.196 95.048 516.298 96.168C517.399 97.2693 517.95 98.912 517.95 101.096V110H516.718V101.18C516.718 99.3693 516.279 97.988 515.402 97.036C514.543 96.0653 513.358 95.58 511.846 95.58C510.278 95.58 509.018 96.1213 508.066 97.204C507.114 98.2867 506.638 99.8547 506.638 101.908V110H505.406V101.18C505.406 99.3693 504.967 97.988 504.09 97.036C503.231 96.0653 502.046 95.58 500.534 95.58C498.966 95.58 497.706 96.1213 496.754 97.204C495.802 98.2867 495.326 99.8547 495.326 101.908V110H494.066V94.796H495.326V98.1C495.755 96.9053 496.446 96.0093 497.398 95.412C498.368 94.796 499.479 94.488 500.73 94.488C502.111 94.488 503.296 94.852 504.286 95.58C505.294 96.2893 505.984 97.344 506.358 98.744C506.712 97.344 507.403 96.2893 508.43 95.58C509.456 94.852 510.66 94.488 512.042 94.488Z" fill="white"/>
<defs>
<linearGradient id="paint0_linear_89_228" x1="3.54599e-06" y1="60.5205" x2="175" y2="60.5205" gradientUnits="userSpaceOnUse">
<stop stop-color="#6FC5E9"/>
<stop offset="0.5" stop-color="#83CCAD"/>
<stop offset="1" stop-color="white"/>
</linearGradient>
<clipPath id="clip0_89_228">
<rect width="175" height="119" fill="white" transform="translate(0 1)"/>
</clipPath>
</defs>
</svg>
